<svg xmlns="http://www.w3.org/2000/svg" viewBox="0 0 64 64">
  <!-- Plate / shadow -->
  <ellipse cx="32" cy="57" rx="26" ry="5" fill="#a87830" opacity="0.4"/>
  <!-- Bottom phyllo layer -->
  <rect x="8" y="34" width="48" height="22" rx="3" fill="#c8961a" stroke="#d4a843" stroke-width="1.5"/>
  <!-- Phyllo layer lines -->
  <line x1="9"  y1="41" x2="55" y2="41" stroke="#d4a843" stroke-width="1" opacity="0.4"/>
  <line x1="9"  y1="48" x2="55" y2="48" stroke="#d4a843" stroke-width="1" opacity="0.4"/>
  <!-- Custard filling (visible top) -->
  <rect x="10" y="22" width="44" height="14" rx="2" fill="#f0e0a0"/>
  <!-- Powdered sugar dots -->
  <circle cx="18" cy="26" r="2.2" fill="white" opacity="0.75"/>
  <circle cx="27" cy="24" r="2.2" fill="white" opacity="0.75"/>
  <circle cx="37" cy="26" r="2.2" fill="white" opacity="0.75"/>
  <circle cx="46" cy="24" r="2.2" fill="white" opacity="0.75"/>
  <!-- Cinnamon specks -->
  <circle cx="22" cy="29" r="1.5" fill="#a87830" opacity="0.7"/>
  <circle cx="32" cy="27" r="1.5" fill="#a87830" opacity="0.7"/>
  <circle cx="42" cy="29" r="1.5" fill="#a87830" opacity="0.7"/>
  <!-- Top flaky crust edge -->
  <path d="M10,22 Q16,18 22,22 Q28,18 34,22 Q40,18 46,22 Q52,18 54,22" stroke="#d4a843" stroke-width="1.5" fill="none"/>
</svg>
