<svg xmlns="http://www.w3.org/2000/svg" viewBox="0 0 64 64">
  <!-- Left lantern -->
  <line x1="17" y1="4" x2="17" y2="12" stroke="#a87830" stroke-width="2" stroke-linecap="round"/>
  <path d="M12,12 Q17,8 22,12" stroke="#a87830" stroke-width="2" fill="none"/>
  <rect x="9"  y="26" width="16" height="6"  rx="2" fill="#a87830" stroke="#d4a843" stroke-width="1.5"/>
  <rect x="9"  y="48" width="16" height="6"  rx="2" fill="#a87830" stroke="#d4a843" stroke-width="1.5"/>
  <rect x="9"  y="31" width="16" height="18" rx="1" fill="#1a1508" stroke="#d4a843" stroke-width="1.5"/>
  <rect x="11" y="33" width="12" height="14" rx="1" fill="rgba(255,220,50,0.12)"/>
  <!-- Left flame -->
  <path d="M14,26 Q12,20 17,15 Q16,19 20,17 Q17,22 21,26" fill="#d4a843"/>
  <path d="M17,26 Q15,21 17,19 Q17,22 19,19 Q19,22 20,26" fill="#f0e0a0"/>

  <!-- Right lantern -->
  <line x1="47" y1="4" x2="47" y2="12" stroke="#a87830" stroke-width="2" stroke-linecap="round"/>
  <path d="M42,12 Q47,8 52,12" stroke="#a87830" stroke-width="2" fill="none"/>
  <rect x="39" y="26" width="16" height="6"  rx="2" fill="#a87830" stroke="#d4a843" stroke-width="1.5"/>
  <rect x="39" y="48" width="16" height="6"  rx="2" fill="#a87830" stroke="#d4a843" stroke-width="1.5"/>
  <rect x="39" y="31" width="16" height="18" rx="1" fill="#1a1508" stroke="#d4a843" stroke-width="1.5"/>
  <rect x="41" y="33" width="12" height="14" rx="1" fill="rgba(255,220,50,0.12)"/>
  <!-- Right flame -->
  <path d="M44,26 Q42,20 47,15 Q46,19 50,17 Q47,22 51,26" fill="#d4a843"/>
  <path d="M47,26 Q45,21 47,19 Q47,22 49,19 Q49,22 50,26" fill="#f0e0a0"/>
</svg>
