<svg xmlns="http://www.w3.org/2000/svg" viewBox="0 0 64 64">
  <!-- Light beams -->
  <line x1="32" y1="14" x2="8"  y2="4"  stroke="#ffe066" stroke-width="1.8" opacity="0.6" stroke-linecap="round"/>
  <line x1="32" y1="14" x2="56" y2="4"  stroke="#ffe066" stroke-width="1.8" opacity="0.6" stroke-linecap="round"/>
  <line x1="32" y1="14" x2="4"  y2="22" stroke="#ffe066" stroke-width="1.8" opacity="0.6" stroke-linecap="round"/>
  <line x1="32" y1="14" x2="60" y2="22" stroke="#ffe066" stroke-width="1.8" opacity="0.6" stroke-linecap="round"/>
  <!-- Lantern room -->
  <rect x="23" y="8" width="18" height="10" rx="2" fill="#f0e0a0"/>
  <!-- Light glow -->
  <circle cx="32" cy="13" r="4.5" fill="#ffe066"/>
  <!-- Balcony -->
  <rect x="21" y="18" width="22" height="3" rx="1" fill="#a87830"/>
  <!-- Tower -->
  <polygon points="26,20 38,20 36,56 28,56" fill="#d4a843"/>
  <!-- Tower stripe -->
  <rect x="27" y="34" width="10" height="4" fill="#f0e0a0" opacity="0.25"/>
  <rect x="27.5" y="46" width="9"  height="4" fill="#f0e0a0" opacity="0.25"/>
  <!-- Base -->
  <rect x="20" y="56" width="24" height="7" rx="2" fill="#a87830"/>
  <!-- Water ripple -->
  <path d="M4,62 Q16,58 28,62 Q40,66 52,62" stroke="#d4a843" stroke-width="1.3" fill="none" opacity="0.45" stroke-linecap="round"/>
</svg>
