<svg xmlns="http://www.w3.org/2000/svg" viewBox="0 0 64 64">
  <!-- Steam wisps -->
  <path d="M22,22 C20,17 24,13 22,8"  stroke="#d4a843" stroke-width="2.2" stroke-linecap="round" fill="none" opacity="0.85"/>
  <path d="M32,22 C30,17 34,13 32,8"  stroke="#d4a843" stroke-width="2.2" stroke-linecap="round" fill="none" opacity="0.85"/>
  <path d="M42,22 C40,17 44,13 42,8"  stroke="#d4a843" stroke-width="2.2" stroke-linecap="round" fill="none" opacity="0.85"/>
  <!-- Cup body -->
  <path d="M11,26 L53,26 L49,55 Q49,59 32,59 Q15,59 15,55 Z" fill="#1a1508" stroke="#d4a843" stroke-width="2"/>
  <!-- Coffee surface -->
  <ellipse cx="32" cy="26" rx="21" ry="5" fill="#a87830"/>
  <!-- Handle -->
  <path d="M51,33 Q64,33 64,42 Q64,51 51,49" stroke="#d4a843" stroke-width="2.8" fill="none" stroke-linecap="round"/>
  <!-- Saucer -->
  <ellipse cx="32" cy="61" rx="25" ry="4" stroke="#d4a843" stroke-width="1.5" fill="none"/>
  <!-- Sea waves beneath -->
  <path d="M2,64 Q10,61 18,64 Q26,67 34,64 Q42,61 50,64" stroke="#c8961a" stroke-width="1.3" fill="none" opacity="0.5" stroke-linecap="round"/>
</svg>
